<svg xmlns="http://www.w3.org/2000/svg" width="648" height="126" viewBox="0 0 648 126" fill="none"><g clip-path="url(#clip0_1016_2)"><path d="M62.64 19C38.58 19 19 38.57 19 62.64C19 71.26 21.51 79.3 25.85 86.08L30.97 83.76C26.92 77.72 24.56 70.45 24.56 62.64C24.56 41.65 41.64 24.56 62.64 24.56C83.64 24.56 100.72 41.64 100.72 62.64C100.72 70.73 98.18 78.23 93.87 84.4L99.13 86.55C103.65 79.68 106.28 71.46 106.28 62.64C106.28 38.58 86.7 19 62.64 19Z" fill="#181B33"></path><path d="M62.6399 9.39001C33.2799 9.39001 9.3999 33.27 9.3999 62.63C9.3999 72.66 12.1899 82.05 17.0299 90.07L22.1299 87.75C17.5799 80.45 14.9499 71.84 14.9499 62.62C14.9499 36.33 36.3399 14.94 62.6299 14.94C88.9199 14.94 110.31 36.33 110.31 62.62C110.31 71.98 107.6 80.71 102.92 88.09L108.14 90.22C113.04 82.17 115.87 72.72 115.87 62.62C115.87 33.26 91.9899 9.38 62.6299 9.38L62.6399 9.39001Z" fill="#181B33"></path><path d="M86.76 59.38C86.59 59.2 86.46 58.94 86.25 58.84C85.48 58.46 84.69 58.1 83.89 57.79C83.43 57.61 83.28 57.34 83.29 56.86C83.3 56.07 83.31 55.28 83.3 54.49C83.29 53.7 83.3 52.91 83.3 52.12C83.34 45.36 80.4 40.17 74.96 36.31C73.17 35.04 71.19 34.11 68.93 33.45V45.56C67.85 45.56 66.89 45.56 65.87 45.56V44.27C65.87 40.16 65.87 36.05 65.85 31.94C65.85 31.67 65.59 31.16 65.44 31.16C63.09 31.11 60.73 31.12 58.26 31.12V45.55C57.16 45.55 56.18 45.55 55.11 45.55V33.58C54.27 33.9 53.45 34.25 52.68 34.63C49.18 36.34 46.36 38.63 44.37 41.69C43.7 42.71 43.13 43.81 42.65 45.01C42.33 45.81 42.06 46.65 41.83 47.53C41.4 49.18 41.29 50.87 41.3 52.55C41.3 53.22 41.33 53.9 41.36 54.57C41.37 54.91 41.39 55.24 41.41 55.58C41.49 57.23 41.07 58.26 39.47 58.76C39.38 58.79 39.3 58.83 39.22 58.87C39.06 58.96 38.91 59.08 38.75 59.19C38.67 59.25 38.6 59.3 38.52 59.35C38.56 59.42 38.59 59.49 38.63 59.56H86.57C86.64 59.51 86.7 59.45 86.77 59.4L86.76 59.38Z" fill="#EC6716"></path><path d="M62.64 0C28.1 0 0 28.1 0 62.64C0 74.05 3.07 84.76 8.43 93.98L10.97 92.86L13.55 91.72C8.48 83.2 5.56 73.25 5.56 62.63C5.56 31.16 31.16 5.56 62.64 5.56C94.12 5.56 119.72 31.16 119.72 62.64C119.72 73.26 116.8 83.21 111.73 91.73L114.36 92.79L116.95 93.83C122.25 84.64 125.29 73.99 125.29 62.64C125.27 28.1 97.17 0 62.64 0Z" fill="#181B33"></path><path d="M42.4899 62.65C49.1199 62.68 55.7599 62.67 62.3899 62.67C68.9999 62.67 75.5999 62.68 82.2099 62.64C82.8899 62.64 83.1699 62.84 83.2599 63.27H86.3599C86.3599 63.27 86.3599 63.25 86.3599 63.24C86.3499 63.08 86.3699 62.92 86.3899 62.68H89.7499C89.7499 60.83 89.7599 59.06 89.7299 57.29C89.7299 57.12 89.4699 56.9 89.2799 56.8C88.5799 56.46 87.8799 56.11 87.1499 55.86C86.4999 55.64 86.3299 55.26 86.3599 54.61C86.4099 53.67 86.3699 52.72 86.3799 51.78C86.3999 48.39 85.6699 45.16 84.0999 42.15C80.9699 36.12 75.9699 32.38 69.5599 30.37C69.1599 30.25 68.7399 29.94 68.4999 29.59C67.7699 28.55 66.7899 28.02 65.5399 28C63.2099 27.98 60.8699 27.98 58.5399 28C57.4299 28 56.3599 28.36 55.8199 29.34C55.3299 30.23 54.6099 30.5 53.7699 30.81C46.6599 33.41 41.6299 38.12 39.1799 45.4C38.1599 48.43 38.1599 51.58 38.2499 54.72C38.2699 55.59 38.0399 56.16 37.2099 56.41C35.7399 56.86 35.2199 57.8 35.4299 59.33C35.5799 60.41 35.4599 61.52 35.4599 62.69H38.3599C38.3599 62.9 38.3699 63.03 38.3599 63.16C38.3599 63.2 38.3599 63.23 38.3599 63.27H41.5099C41.6399 62.82 41.8999 62.65 42.4999 62.65H42.4899ZM38.5099 59.32C38.5899 59.27 38.6699 59.21 38.7399 59.16C38.8899 59.05 39.0499 58.93 39.2099 58.84C39.2899 58.8 39.3699 58.76 39.4599 58.73C41.0499 58.22 41.4699 57.19 41.3999 55.55C41.3799 55.22 41.3699 54.88 41.3499 54.54C41.3199 53.87 41.2999 53.2 41.2899 52.52C41.2799 50.84 41.3899 49.16 41.8199 47.5C42.0499 46.62 42.3299 45.78 42.6399 44.98C43.1199 43.78 43.6899 42.68 44.3599 41.66C46.3599 38.6 49.1699 36.3 52.6699 34.6C53.4499 34.22 54.2599 33.87 55.0999 33.55V45.52H58.2499V31.09C60.7199 31.09 63.0699 31.08 65.4299 31.13C65.5799 31.13 65.8399 31.64 65.8399 31.91C65.8699 36.02 65.8599 40.13 65.8599 44.24V45.53H68.9199V33.42C71.1799 34.09 73.1599 35.01 74.9499 36.28C80.3899 40.14 83.3199 45.34 83.2899 52.09C83.2899 52.88 83.2899 53.67 83.2899 54.46C83.2899 55.25 83.2899 56.04 83.2799 56.83C83.2799 57.32 83.4199 57.58 83.8799 57.76C84.6799 58.07 85.4699 58.43 86.2399 58.81C86.4499 58.91 86.5799 59.17 86.7499 59.35C86.6799 59.4 86.6199 59.46 86.5499 59.51H38.6099C38.5699 59.44 38.5399 59.37 38.4999 59.3L38.5099 59.32Z" fill="#181B33"></path><path d="M83.29 56.85C83.3 56.06 83.31 55.27 83.3 54.48C83.3 55.27 83.3 56.06 83.29 56.85Z" fill="#181B33"></path><path d="M41.35 54.54C41.32 53.87 41.3 53.2 41.29 52.52C41.29 53.19 41.32 53.87 41.35 54.54Z" fill="#181B33"></path><path d="M87.4201 91.45C84.2801 89.92 81.1301 88.39 77.9901 86.86C77.1001 86.42 75.8801 86.16 75.4301 85.43C74.9801 84.7 75.2801 83.49 75.3401 82.5C75.3601 82.18 75.5801 81.77 75.8301 81.57C79.5301 78.68 81.9901 75.07 82.5601 70.3C82.5901 70.01 82.9001 69.69 83.1701 69.51C85.3601 67.99 86.5501 65.98 86.3701 63.26H83.2701C83.3001 63.39 83.3101 63.55 83.3201 63.72C83.3401 65.31 82.2701 66.78 80.4601 67.41C79.7301 67.66 79.5201 68 79.5101 68.76C79.4801 73.51 77.0801 76.97 73.3101 79.55C66.3301 84.32 56.1601 83.82 49.6701 78.4C46.6201 75.85 44.8901 72.6 44.9601 68.54C44.9701 67.89 44.7301 67.65 44.1401 67.45C42.0601 66.77 41.1901 65.41 41.4501 63.55C41.4701 63.43 41.4901 63.35 41.5201 63.26H38.3701C38.0501 66.04 39.1201 68.15 41.4701 69.67C41.7001 69.82 41.9001 70.18 41.9301 70.46C42.4601 74.67 44.4401 78.12 47.7101 80.71C49.0401 81.77 49.5601 82.82 49.4301 84.46C49.3701 85.22 49.1601 85.56 48.5001 85.87C47.9301 86.14 47.3501 86.42 46.7801 86.69L37.3101 90.88C44.0501 96.92 52.9501 100.6 62.6901 100.6C72.4301 100.6 80.7701 97.14 87.4201 91.44V91.45ZM52.4701 83.85C59.1301 86.6 65.6301 86.56 72.2101 83.75C72.2801 87.39 70.9701 90.25 68.1001 92.28C64.7001 94.69 61.0501 94.88 57.4501 92.83C54.0901 90.92 52.5101 87.89 52.4701 83.85Z" fill="#181B33"></path><path d="M16.2002 100.4L14.2002 101.31L16.2002 100.4Z" fill="#181B33"></path><path d="M16.2002 100.4L18.8402 99.1899L16.2002 100.4Z" fill="#181B33"></path><path d="M106.4 99.23L107.1 99.52L106.4 99.23Z" fill="#181B33"></path><path d="M62.68 106.17C74.42 106.17 85.09 101.5 92.94 93.93L90.81 93.11C89.68 92.56 88.54 92.01 87.41 91.45C80.75 97.16 72.11 100.61 62.68 100.61C53.25 100.61 44.04 96.93 37.3 90.89L31.79 93.33C39.7 101.26 50.62 106.18 62.68 106.18V106.17Z" fill="#181B33"></path><path d="M25.9399 95.92L25.9599 95.95L25.9399 95.92Z" fill="#181B33"></path><path d="M62.6799 125.07C42.9099 125.07 25.2599 115.85 13.7699 101.5L13.6099 101.57C15.9599 104.53 18.5799 107.27 21.4199 109.76C22.2799 110.51 23.1599 111.24 24.0599 111.95C26.9999 114.25 30.1499 116.3 33.4699 118.05C35.6699 119.21 37.9599 120.25 40.3099 121.15C47.2499 123.81 54.7699 125.26 62.6299 125.26C70.4899 125.26 78.0099 123.8 84.9499 121.15C87.2999 120.25 89.5799 119.21 91.7899 118.05C94.7199 116.5 97.5099 114.73 100.15 112.76C101.05 112.08 101.94 111.38 102.8 110.65C106.09 107.9 109.08 104.81 111.75 101.45L111.66 101.41C100.17 115.81 82.4899 125.07 62.6799 125.07Z" fill="#181B33"></path><path d="M62.68 125.07C82.49 125.07 100.17 115.81 111.66 101.41L109.11 100.35L107.11 99.52L106.41 99.23L106.31 99.19C95.83 111.61 80.17 119.52 62.69 119.52C45.21 119.52 29.49 111.59 19.01 99.13L18.85 99.2L16.21 100.4L14.21 101.31L13.79 101.5C25.28 115.85 42.93 125.07 62.7 125.07H62.68Z" fill="#181B33"></path><path d="M62.64 115.83C78.56 115.83 92.87 108.79 102.63 97.68L97.06 95.53C88.37 104.61 76.16 110.28 62.63 110.28C49.1 110.28 36.5 104.43 27.8 95.11L25.94 95.93V95.96H25.95L22.5 97.53C32.27 108.73 46.63 115.83 62.62 115.83H62.64Z" fill="#181B33"></path><path d="M25.96 95.95V95.92L22.46 97.46C22.48 97.48 22.49 97.5 22.51 97.52L25.96 95.95Z" fill="#181B33"></path><path d="M147.38 96.2801L150.7 27.1801H162.86L182.08 59.8201L200.98 27.1801H213.14L216.46 96.2801H203.69L201.41 48.4101L184.79 76.5801H178.66L161.93 49.1301L159.65 96.2601H147.38V96.2801Z" fill="#EC6716"></path><path d="M263.73 81.77L270.37 89.23L268.66 90.93C267.73 91.86 266.38 92.87 264.6 93.94C262.83 95.01 260.58 95.95 257.85 96.74C255.11 97.53 251.85 97.93 248.04 97.93C242.84 97.93 238.33 96.81 234.48 94.56C230.63 92.31 227.64 89.2 225.49 85.18C223.33 81.17 222.27 76.59 222.27 71.4C222.27 66.63 223.33 62.34 225.44 58.5C227.55 54.66 230.46 51.63 234.17 49.38C237.88 47.13 242.15 46.01 247 46.01C251.5 46.01 255.27 46.8 258.33 48.39C261.38 49.98 263.84 52.1 265.71 54.77C267.59 57.43 268.93 60.41 269.77 63.74C270.6 67.05 271.02 70.43 271.02 73.9V75.66H234.66C234.66 78 235.34 80.07 236.69 81.83C238.04 83.59 239.76 84.98 241.83 85.97C243.92 86.97 246.01 87.47 248.17 87.47C251.35 87.47 253.99 87.11 256.06 86.39C258.15 85.67 259.8 84.85 261.05 83.95C262.3 83.05 263.19 82.33 263.74 81.77H263.73ZM234.55 66.86H258.44C258.44 65.2 258.01 63.56 257.15 61.94C256.29 60.32 255.03 58.97 253.36 57.89C251.69 56.82 249.58 56.28 247.02 56.28C244.32 56.28 242.04 56.82 240.21 57.89C238.38 58.96 236.97 60.32 236 61.94C235.03 63.56 234.54 65.2 234.54 66.86H234.55Z" fill="#EC6716"></path><path d="M280.26 79.7101V57.6501H271.95V47.7001H280.26V31.9601H292.52V47.7001H305.61V57.6501H292.52V78.8801C292.52 81.6401 292.99 83.7701 293.92 85.2601C294.85 86.7501 296.36 87.4901 298.44 87.4901C300.37 87.4901 301.91 87.2101 303.07 86.6601C304.21 86.1101 305.31 85.4501 306.34 84.6901L311.54 92.2601C309.11 94.2001 306.73 95.6101 304.37 96.5001C302.02 97.4001 299.38 97.8401 296.48 97.8401C290.52 97.8401 286.33 96.1801 283.92 92.8601C281.49 89.5501 280.28 85.1501 280.28 79.7101H280.26Z" fill="#EC6716"></path><path d="M342.59 96.2801L342.29 91.7201C340.97 93.3101 338.95 94.7301 336.22 95.9601C333.48 97.2101 330.5 97.8301 327.23 97.8301C324.6 97.8301 321.99 97.2801 319.39 96.1701C316.79 95.0601 314.65 93.3401 312.96 90.9901C311.26 88.6501 310.42 85.6701 310.42 82.0801C310.42 76.5501 312.39 72.2701 316.34 69.2301C320.29 66.1901 325.44 64.6701 331.82 64.6701C333 64.6701 334.41 64.7101 336.03 64.7701C337.66 64.8401 339.75 64.9401 342.31 65.0701V63.9301C342.31 61.5201 341.34 59.6201 339.41 58.2301C337.46 56.8401 334.95 56.1501 331.82 56.1501C328.36 56.1501 325.59 56.5901 323.51 57.4901C321.42 58.3901 319.59 59.3601 318 60.3901L312.39 52.1001C313.71 51.1301 315.27 50.1901 317.06 49.2501C318.87 48.3201 321.08 47.5501 323.7 46.9201C326.33 46.3001 329.59 45.9901 333.47 45.9901C339.7 45.9901 344.69 47.6301 348.42 50.9101C352.16 54.1901 354.03 58.4201 354.03 63.6001V96.2401H342.61L342.59 96.2701V96.2801ZM342.29 79.0801V74.3101C340.69 74.1701 338.97 74.0701 337.09 74.0101C335.21 73.9401 333.8 73.9001 332.84 73.9001C328.89 73.9001 326.13 74.6801 324.53 76.2301C322.93 77.7801 322.14 79.5601 322.14 81.5701C322.14 83.5801 322.88 85.2701 324.38 86.4301C325.87 87.6101 328.06 88.1901 330.98 88.1901C332.93 88.1901 334.73 87.7701 336.43 86.9401C338.13 86.1101 339.53 85.0101 340.64 83.6301C341.75 82.2401 342.31 80.7301 342.31 79.0701H342.3L342.29 79.0801Z" fill="#EC6716"></path><path d="M361.49 96.2801V27.1801H373.75V96.2801H361.49Z" fill="#EC6716"></path><path d="M416.03 96.2801L390.58 27.1801H407.92L424.85 77.6301L441.36 27.1801H457.98L432.53 96.2801H416.01H416.02H416.03Z" fill="#181B33"></path><path d="M482.53 96.28L482.11 91.72C478.65 95.73 473.73 97.73 467.36 97.73C465.08 97.73 462.66 97.3 460.13 96.44C457.6 95.58 455.43 94.04 453.64 91.83C451.83 89.63 450.95 86.58 450.95 82.71C450.95 78.84 451.94 75.7 453.91 73.08C455.88 70.46 458.57 68.47 461.96 67.12C465.35 65.78 469.16 65.1 473.38 65.1C475.12 65.1 476.85 65.14 478.63 65.2C480.39 65.27 481.55 65.37 482.1 65.5V64.46C482.1 61.98 481.14 60.19 479.24 59.12C477.34 58.05 475.17 57.51 472.75 57.51C469.5 57.51 466.76 57.93 464.54 58.76C462.32 59.59 460.45 60.52 458.93 61.56L452.8 52.44C454.82 50.85 457.54 49.38 461.02 48.03C464.48 46.69 469.08 46.01 474.83 46.01C482.24 46.01 487.71 47.99 491.24 51.97C494.77 55.95 496.53 61.28 496.53 67.98V96.27H482.51H482.52L482.53 96.28ZM482.11 78.79V74.85C481.76 74.78 481.11 74.7 480.14 74.59C479.17 74.48 478.05 74.44 476.82 74.44C472.66 74.44 469.72 75.02 467.99 76.2C466.25 77.38 465.39 79.03 465.39 81.18C465.39 85.19 467.81 87.19 472.66 87.19C475.01 87.19 477.18 86.47 479.15 85.01C481.12 83.55 482.11 81.49 482.11 78.8V78.79Z" fill="#181B33"></path><path d="M504.96 113.07L510.99 102.51C512.92 103.69 514.99 104.6 517.17 105.25C519.35 105.9 521.76 106.23 524.4 106.23C527.79 106.23 530.46 105.33 532.4 103.54C534.33 101.74 535.3 99.0501 535.3 95.4601V92.0401C532.19 94.7301 528.03 96.09 522.83 96.09C518.19 96.09 514.23 95.1101 510.93 93.1401C507.64 91.1701 505.13 88.4301 503.4 84.9101C501.67 81.3901 500.8 77.3801 500.8 72.8901C500.8 67.6401 501.98 63.0501 504.33 59.1101C506.68 55.1701 509.96 52.1101 514.14 49.9401C518.32 47.7601 523.23 46.6801 528.84 46.6801C532.86 46.6801 536.71 47.0301 540.37 47.7201C544.04 48.4101 547.29 49.2701 550.14 50.3101V94.7501C550.14 102.76 547.93 108.68 543.5 112.52C539.07 116.36 533.01 118.27 525.32 118.27C516.87 118.27 510.09 116.54 504.96 113.09L504.93 113.06L504.96 113.07ZM535.4 74.6401V60.0301C534.43 59.6801 533.45 59.4201 532.5 59.2501C531.53 59.0801 530.25 58.9901 528.65 58.9901C524.36 58.9901 521.15 60.3101 519.03 62.9301C516.92 65.5501 515.86 68.7001 515.86 72.3501C515.86 75.8001 516.72 78.5901 518.46 80.6901C520.2 82.8001 522.64 83.8501 525.84 83.8501C529.04 83.8501 531.25 83.1201 532.9 81.6201C534.57 80.1401 535.39 77.8101 535.39 74.6201H535.41L535.4 74.6401Z" fill="#181B33"></path><path d="M585.58 96.28L585.16 91.72C581.7 95.73 576.78 97.73 570.41 97.73C568.13 97.73 565.71 97.3 563.18 96.44C560.65 95.58 558.48 94.04 556.69 91.83C554.88 89.63 553.99 86.58 553.99 82.71C553.99 78.84 554.98 75.7 556.95 73.08C558.92 70.46 561.61 68.47 565 67.12C568.39 65.78 572.2 65.1 576.42 65.1C578.16 65.1 579.89 65.14 581.67 65.2C583.44 65.27 584.59 65.37 585.14 65.5V64.46C585.14 61.98 584.18 60.19 582.28 59.12C580.37 58.05 578.21 57.51 575.79 57.51C572.54 57.51 569.8 57.93 567.58 58.76C565.36 59.59 563.49 60.52 561.97 61.56L555.84 52.44C557.86 50.85 560.58 49.38 564.05 48.03C567.51 46.69 572.11 46.01 577.86 46.01C585.27 46.01 590.74 47.99 594.28 51.97C597.81 55.95 599.57 61.28 599.57 67.98V96.27H585.54H585.56L585.58 96.28ZM585.16 78.79V74.85C584.81 74.78 584.16 74.7 583.19 74.59C582.22 74.48 581.1 74.44 579.87 74.44C575.72 74.44 572.77 75.02 571.05 76.2C569.31 77.38 568.45 79.03 568.45 81.18C568.45 85.19 570.87 87.19 575.72 87.19C578.07 87.19 580.24 86.47 582.21 85.01C584.18 83.55 585.17 81.49 585.17 78.8L585.16 78.79Z" fill="#181B33"></path><path d="M603.65 90.8001L611.03 81.27C612.63 82.73 614.71 83.9301 617.31 84.9001C619.91 85.8701 622.41 86.3601 624.84 86.3601C627.05 86.3601 628.9 86.0701 630.34 85.4701C631.8 84.8901 632.52 83.83 632.52 82.31C632.52 81.41 632.23 80.6701 631.63 80.0801C631.05 79.5001 629.93 78.8901 628.31 78.2601C626.68 77.6401 624.31 76.9201 621.19 76.0801C618.7 75.3901 616.28 74.46 613.96 73.28C611.64 72.1 609.73 70.54 608.25 68.57C606.76 66.6 606.01 64.14 606.01 61.17C606.01 58.2 606.91 55.4901 608.71 53.2401C610.5 50.9901 612.96 49.23 616.09 47.96C619.2 46.68 622.71 46.05 626.58 46.05C630.74 46.05 634.39 46.5201 637.54 47.4501C640.69 48.3801 643.54 49.7501 646.12 51.5401L639.78 61.3801C638.25 60.3401 636.46 59.4101 634.37 58.5801C632.28 57.7501 629.96 57.3301 627.41 57.3301C625.13 57.3301 623.46 57.6601 622.42 58.3101C621.38 58.9601 620.86 59.85 620.86 60.96C620.86 62.55 621.96 63.7201 624.12 64.4801C626.3 65.2401 629.19 66.1 632.79 67.07C637.71 68.39 641.31 70.27 643.59 72.71C645.87 75.16 647.02 78.3901 647.02 82.4001C647.02 85.9201 645.98 88.8401 643.91 91.1601C641.83 93.4701 639.14 95.1801 635.86 96.2901C632.57 97.4001 629.09 97.95 625.42 97.95C621.06 97.95 616.93 97.34 613.05 96.13C609.17 94.92 606.02 93.1501 603.6 90.7901H603.61L603.65 90.8001Z" fill="#181B33"></path></g><defs><clipPath id="clip0_1016_2"><rect width="647.05" height="125.27" fill="white"></rect></clipPath></defs></svg>